# xmcd
#
# Track frame offsets: 
#        150
#        18690
#        36852
#        56280
#        72357
#        90477
#        97886
#        114832
#        134093
#        147749
#
# Disc length: 2880 seconds
#
# Revision: 0
# Processed by: cddbd v1.5.2PL0 Copyright (c) Steve Scherf et al.
# Submitted via: ExactAudioCopy v0.95a5
#
DISCID=8a0b3e0a
DTITLE=Wagons - Trying To Get Home
DYEAR=2002
DGENRE=Indie
TTITLE0=Summertime
TTITLE1=Samson
TTITLE2=Trying To Get Home
TTITLE3=Waverley
TTITLE4=In the Future
TTITLE5=You and Me
TTITLE6=In Las Vegas
TTITLE7=Send a Message
TTITLE8=High Rollin'
TTITLE9=Carrying a Noose
EXTD=
EXTT0=
EXTT1=
EXTT2=
EXTT3=
EXTT4=
EXTT5=
EXTT6=
EXTT7=
EXTT8=
EXTT9=
PLAYORDER=
